<?xml version="1.0" encoding="UTF-8"?>
<svg xmlns="http://www.w3.org/2000/svg" viewBox="0 0 387.19644 109.37596">
  <defs>
    <style>
      .cls-1 {
        fill: #fff;
      }

      .cls-1, .cls-2 {
        stroke: #000;
        stroke-miterlimit: 10;
      }

      .cls-2 {
        fill: none;
      }
    </style>
  </defs>
  <g id="traveler">
    <g id="Layer_1" data-name="Layer 1">
      <g>
        <path class="cls-2" d="m52.60001.60121v11.3h-19.7v45.3h-12.60001V11.90121H.5V.60121h52.10001Z"/>
        <path class="cls-2" d="m104.90001,57.2012h-14.39999l-11.2-20.39999h-10.39999v20.39999h-12.60001V.50121h26.2c12.39999,0,19.89999,8.89999,19.89999,18.3,0,7.3-4.2,14.3-10.89999,16.7l13.39999,21.7Zm-21.39999-31.39999c4.39999,0,7.89999-2.7,7.89999-7,0-4.39999-3.5-7.3-7.89999-7.3h-14.60001v14.3h14.60001Z"/>
        <path class="cls-2" d="m139.60002,45.50121h-20.89999l-4.39999,11.7h-11.90002L123.20001.50121h13.2l19.60001,56.7h-11.89999l-4.5-11.7Zm-3.90002-10.39999l-6.5-17.3-6.5,17.3h13Z"/>
        <path class="cls-2" d="m165.8,57.2012L147.09999.50121h11.89999l13.5,40.90001L186.09999.50122h11.89999l-18.70001,56.7-13.49997-.00002Z"/>
        <path class="cls-2" d="m241.2.60121v11.3h-28.20001v10.10001l23.5.10001v11.3l-23.5-.10001v12.60001h28.20001v11.3h-40.5V.50124l40.5.09998h0Z"/>
        <path class="cls-2" d="m287.90001,45.90121v11.3h-40.20001V.50122h12.60001v45.3l27.60001.09999h0Z"/>
        <path class="cls-2" d="m331.3.60121v11.3h-28.20001v10.10001l23.5.10001v11.3l-23.5-.10001v12.60001h28.20001v11.3h-40.5V.50124l40.5.09998h0Z"/>
        <path class="cls-2" d="m386.30003,57.2012h-14.39999l-11.20001-20.39999h-10.39999v20.39999h-12.60001V.50121h26.20001c12.39999,0,19.89999,8.89999,19.89999,18.3,0,7.3-4.20001,14.3-10.89999,16.7l13.39999,21.7Zm-21.30002-31.39999c4.39999,0,7.89999-2.7,7.89999-7,0-4.39999-3.5-7.3-7.89999-7.3h-14.60001v14.3h14.60001Z"/>
      </g>
    </g>
  </g>
  <g id="wave">
    <g id="Layer_2" data-name="Layer 2">
      <path class="cls-1" d="m111.53239,105.76074c12.89598-1.612,19.21502-6.25456,22.56797-10.31679,3.224-3.86879,4.70704-8.3179,10.31679-12.25118,5.73871-4.06224,9.9299-4.44911,10.96159-4.51359,1.612-.06448,7.86655-.25792,10.57471,4.12671.12897.25792,2.19231,3.35296.9672,6.31902-.83823,2.06337-2.9016,3.224-3.224,2.96608-.25792-.19343,1.09617-1.48303.90271-3.35296-.12897-1.612-1.2896-2.77263-1.612-3.03056-1.99888-1.80543-4.90048-1.16063-5.28735-1.09617-3.93328.83823-7.47967,5.60976-6.38351,9.15616,1.22511,3.86879,7.47966,4.38463,9.15615,4.51359,7.15727.58032,12.76702-3.73983,14.1211-4.83599,6.19008-5.09391,4.38463-9.22062,10.18782-13.1539.38688-.25792,8.51136-5.67423,14.89486-1.9344,4.51359,2.64368,5.28736,8.05999,5.28736,8.3179.19343,1.48303.6448,4.96496-1.86991,7.28622-2.83711,2.64368-7.41519,1.612-7.47967,1.16063-.06448-.3224,2.19231-.25792,3.67536-1.9344,1.35408-1.54751,2.12783-4.64256.45137-6.57696-1.54751-1.80543-4.38463-1.48303-5.99662-.83823-2.70816,1.16063-4.32016,4.44911-3.80431,6.96382.83823,3.99776,7.09279,6.25456,11.92878,5.86768,1.99888-.12897,4.70703-.77377,15.60415-9.47856,6.12559-4.90048,5.48079-5.15839,8.3179-6.96382,3.48191-2.19231,11.5419-7.09279,19.40846-3.93328,4.70703,1.9344,8.25342,6.25456,9.47856,10.96159.3224,1.2896,1.35408,5.48079-.70928,9.9299-.38688.90271-1.74097,3.61088-4.70703,5.41631-2.83711,1.74097-6.38351,2.19231-6.70591,1.48303-.38688-.90271,5.41631-2.38576,7.15727-7.15727,1.2896-3.41743.38688-8.38239-2.77263-10.51022-4.25568-2.83711-11.60638,0-13.99215,5.41631-2.32128,5.35183,1.03168,11.34847,5.09391,13.73421,4.19119,2.45023,9.02719,1.03168,11.5419.25792,3.99776-1.22511,5.28736-2.83711,18.24781-12.25118,2.64368-1.9344,4.57808-3.28848,7.47967-3.61088,3.93328-.38688,7.22176,1.41857,9.15616,2.77263"/>
    </g>
  </g>
</svg>