<?xml version="1.0" encoding="utf-8"?>
<!-- Generator: Adobe Illustrator 28.0.0, SVG Export Plug-In . SVG Version: 6.00 Build 0)  -->
<svg version="1.1" id="Layer_1" xmlns="http://www.w3.org/2000/svg" xmlns:xlink="http://www.w3.org/1999/xlink" x="0px" y="0px"
	 viewBox="0 0 612 792" style="enable-background:new 0 0 612 792;" xml:space="preserve">
<style type="text/css">
	.st0{fill:none;stroke:#000000;stroke-miterlimit:10;}
</style>
<g>
	<path class="st0" d="M183.2,169.3v11.3h-19.7v45.3h-12.6v-45.3h-19.8v-11.3H183.2z"/>
	<path class="st0" d="M235.5,225.9h-14.4l-11.2-20.4c-9,0-10.4,0-10.4,0v20.4h-12.6v-56.7l26.2,0c12.4,0,19.9,8.9,19.9,18.3
		c0,7.3-4.2,14.3-10.9,16.7L235.5,225.9z M214.1,194.5c4.4,0,7.9-2.7,7.9-7c0-4.4-3.5-7.3-7.9-7.3h-14.6v14.3H214.1z"/>
	<path class="st0" d="M270.2,214.2h-20.9l-4.4,11.7H233l20.8-56.7H267l19.6,56.7h-11.9L270.2,214.2z M266.3,203.8l-6.5-17.3
		l-6.5,17.3H266.3z"/>
	<path class="st0" d="M296.4,225.9l-18.7-56.7h11.9l13.5,40.9l13.6-40.9h11.9l-18.7,56.7L296.4,225.9z"/>
	<path class="st0" d="M371.8,169.3v11.3h-28.2v10.1l23.5,0.1v11.3l-23.5-0.1v12.6h28.2v11.3h-40.5v-56.7H371.8z"/>
	<path class="st0" d="M418.5,214.6v11.3h-40.2v-56.7h12.6v45.3H418.5z"/>
	<path class="st0" d="M461.9,169.3v11.3h-28.2v10.1l23.5,0.1v11.3l-23.5-0.1v12.6h28.2v11.3h-40.5v-56.7H461.9z"/>
	<path class="st0" d="M516.9,225.9h-14.4l-11.2-20.4c-9,0-10.4,0-10.4,0v20.4h-12.6v-56.7l26.2,0c12.4,0,19.9,8.9,19.9,18.3
		c0,7.3-4.2,14.3-10.9,16.7L516.9,225.9z M495.6,194.5c4.4,0,7.9-2.7,7.9-7c0-4.4-3.5-7.3-7.9-7.3H481v14.3H495.6z"/>
</g>
</svg>
